PathFileType	4	(X/Y/Z)	\\147.46.242.158\로컬 디스크 (e)\MOCAP Data\Iguana Capture\iguana\Project 2\Capture day 5 after broken\Session 1\Take01 ddong.trc
DataRate	CameraRate	NumFrames	NumMarkers	Units	OrigDataRate	OrigDataStartFrame	OrigNumFrames
120.0	120.0	13	23	mm	120.0	500	23111
Frame#	Time	ana:head1			ana:head2			ana:bone1			ana:bone2			ana:bone3			ana:tail1			ana:tail2			ana:tail3			ana:tail4			ana:Rforefoot1			ana:Rforefoot2			ana:Rforefoot3			ana:Lforefoot1			ana:Lforefoot2			ana:Lforefoot3			ana:RhindLeg1			ana:RhindLeg2			ana:RhindLeg3			ana:RhindLeg4			ana:LhindLeg1			ana:LhindLeg2			ana:LhindLeg3			ana:LhindLeg4			
		X1	Y1	Z1	X2	Y2	Z2	X3	Y3	Z3	X4	Y4	Z4	X5	Y5	Z5	X6	Y6	Z6	X7	Y7	Z7	X8	Y8	Z8	X9	Y9	Z9	X10	Y10	Z10	X11	Y11	Z11	X12	Y12	Z12	X13	Y13	Z13	X14	Y14	Z14	X15	Y15	Z15	X16	Y16	Z16	X17	Y17	Z17	X18	Y18	Z18	X19	Y19	Z19	X20	Y20	Z20	X21	Y21	Z21	X22	Y22	Z22	X23	Y23	Z23	

7726	64.375	180.12944	331.37033	49.06591	189.53299	325.65063	50.63922	208.88536	316.58298	43.83723	235.55907	306.17752	43.29670	263.19806	284.23822	36.82022	284.95703	260.78009	29.04397	310.87048	240.39275	19.35533	342.86481	224.64714	9.12164	380.11249	206.23891	4.95096	207.26405	328.07114	27.27588	208.69957	339.19412	16.57792	195.98444	340.65237	3.48459	205.83516	302.24240	27.37675	213.10181	292.30710	21.86253	221.78354	291.54575	7.85357	271.80688	288.88934	28.41681	285.90689	297.24149	22.52179	297.62402	285.24347	13.55949	294.27664	293.81506	5.95723	253.46001	277.26047	29.32446	236.59662	275.31375	23.30474	233.76852	268.11722	5.25642	221.44287	270.82169	3.29052	
7727	64.383	179.37828	331.78778	49.23302	188.74203	326.07974	50.78511	208.06721	316.88721	44.04987	234.76405	306.33978	43.52325	262.58691	284.65341	36.95627	284.55380	261.39301	29.23672	310.51144	241.09354	19.49560	342.45651	225.27614	9.24971	379.56894	206.66742	5.00251	206.63377	328.35541	27.43517	208.53490	339.34763	16.66502	195.96640	340.63806	3.46036	204.97000	302.53781	27.62973	212.37717	292.64398	22.15837	221.28947	291.71744	8.18093	271.07233	289.23651	28.63208	285.24823	297.39740	22.78308	297.23648	285.50110	13.99465	294.01895	294.07196	6.20474	252.91685	277.45987	29.54260	236.10085	275.29428	23.40151	233.78749	268.12817	5.29348	221.46747	270.83807	3.34367	
7728	64.392	178.65248	332.18311	49.38074	187.97308	326.49130	50.90758	207.27290	317.17508	44.23992	233.98306	306.49146	43.71996	262.00552	285.04611	37.06211	284.17245	262.00232	29.40623	310.19485	241.81587	19.61803	342.08853	225.93341	9.35067	379.06265	207.09995	5.05406	206.01936	328.60721	27.56368	208.37657	339.45847	16.71098	195.94240	340.58594	3.40188	204.11105	302.81113	27.89206	211.62553	292.90817	22.51036	220.76067	291.85513	8.52172	270.33411	289.56964	28.81975	284.59317	297.53702	23.01569	296.83975	285.79581	14.42475	293.75809	294.31326	6.43152	252.38361	277.64133	29.73740	235.61418	275.26178	23.50103	233.82417	268.13992	5.33383	221.49382	270.85513	3.39891	
7729	64.400	177.94412	332.55942	49.50038	187.22163	326.88776	51.00118	206.49718	317.44992	44.40212	233.20598	306.63156	43.88071	261.43927	285.41006	37.13618	283.79709	262.59750	29.54494	309.89899	242.54224	19.71311	341.74091	226.60387	9.41505	378.58221	207.53738	5.10203	205.42250	328.83340	27.66019	208.23026	339.53677	16.71651	195.92076	340.50378	3.31267	203.24805	303.07248	28.16300	210.82266	293.10272	22.93354	220.17111	291.95267	8.87671	269.58731	289.88559	28.97747	283.93729	297.66495	23.22014	296.42746	286.11765	14.85036	293.50891	294.52286	6.62873	251.84982	277.80557	29.89736	235.12865	275.20898	23.58697	233.87492	268.14166	5.36231	221.51819	270.86331	3.45095	
7730	64.408	177.24355	332.92203	49.58746	186.48109	327.27274	51.06386	205.73207	317.71722	44.53452	232.42154	306.76062	44.00365	260.87155	285.74152	37.18053	283.41049	263.16983	29.64895	309.59930	243.25517	19.77427	341.39096	227.27179	9.43729	378.11298	207.98097	5.14306	204.84224	329.04288	27.72760	208.09927	339.59402	16.68869	195.90794	340.40323	3.20176	202.36714	303.33591	28.44458	209.94225	293.23996	23.44524	219.48407	292.00598	9.25122	268.82709	290.18350	29.10720	283.27350	297.78900	23.40093	295.99326	286.45377	15.27415	293.28381	294.69138	6.79360	251.30415	277.95514	30.01504	234.63579	275.13126	23.64690	233.93358	268.12549	5.36981	221.53650	270.85663	3.49701	
7731	64.417	176.54018	333.27805	49.64199	185.74329	327.65079	51.09705	204.96783	317.98389	44.63852	231.61858	306.88040	44.09126	260.28497	286.03992	37.20060	282.99542	263.71323	29.71846	309.27063	243.93919	19.79885	341.01508	227.92245	9.41640	377.63794	208.43216	5.17451	204.27505	329.24585	27.77210	207.98372	339.64175	16.63929	195.90767	340.29828	3.08153	201.45222	303.61819	28.74128	208.95885	293.34064	24.06341	218.65349	292.01456	9.65565	268.04849	290.46497	29.21499	282.59232	297.91882	23.56607	295.53131	286.79086	15.70056	293.09018	294.81747	6.93027	250.73514	278.09430	30.08772	234.12750	275.02682	23.67293	233.99237	268.08762	5.35336	221.54514	270.83328	3.53617	
7732	64.425	175.82361	333.63577	49.66834	184.99913	328.02719	51.10546	204.19376	318.25766	44.71848	230.78679	306.99426	44.14989	259.66296	286.30789	37.20470	282.53644	264.22488	29.75768	308.88977	244.58237	19.78848	340.59109	228.54384	9.35613	377.13971	208.89211	5.19468	203.71500	329.45264	27.80205	207.88020	339.68973	16.58262	195.92023	340.20346	2.96536	200.48650	303.93750	29.05940	207.85100	293.43289	24.80448	217.62700	291.98215	10.10530	267.24698	290.73352	29.31017	281.88284	298.06424	23.72610	295.03650	287.11758	16.13510	292.92886	294.90878	7.04967	250.13213	278.22839	30.11754	233.59668	274.89685	23.66182	234.04282	268.02850	5.31556	221.54140	270.79532	3.56865	
7733	64.433	175.08467	334.00381	49.67440	184.23975	328.40747	51.09642	203.39943	318.54654	44.78101	229.91779	307.10660	44.18882	258.99136	286.55090	37.20295	282.02112	264.70557	29.77427	308.43771	245.17764	19.74902	340.10034	229.12772	9.26438	376.60181	209.36143	5.20306	203.15469	329.67310	27.82662	207.78244	339.74518	16.53322	195.94266	340.13181	2.86555	199.45438	304.31155	29.40596	206.60387	293.54935	25.68073	216.35033	291.91806	10.61910	266.41818	290.99420	29.40422	281.13379	298.23322	23.89282	294.50470	287.42694	16.58357	292.79327	294.98074	7.16836	249.48636	278.36343	30.11100	233.03809	274.74496	23.61455	234.07710	267.95248	5.26326	221.52434	270.74789	3.59505	
7734	64.442	174.31609	334.39041	49.67041	183.45715	328.79733	51.07895	202.57576	318.85767	44.83393	229.00557	307.22217	44.21899	258.25934	286.77652	37.20620	281.44089	265.15945	29.77839	307.90146	245.72357	19.68987	339.52972	229.67050	9.15228	376.01007	209.84010	5.20031	202.58623	329.91525	27.85453	207.68196	339.81180	16.50387	195.96947	340.09335	2.79160	198.34343	304.75610	29.78740	205.21133	293.72400	26.69776	214.77278	291.83768	11.21754	265.55820	291.25272	29.50930	280.33463	298.43057	24.07773	293.93289	287.71802	17.05115	292.66998	295.05438	7.30638	248.79150	278.50522	30.07808	232.44891	274.57617	23.53535	234.08900	267.86676	5.20592	221.49498	270.69788	3.61582	
7735	64.450	173.51331	334.80258	49.66740	182.64528	329.20233	51.06264	201.71594	319.19690	44.88525	228.04691	307.34564	44.25160	257.46021	286.99356	37.22469	280.79199	265.59332	29.78146	307.27515	246.22421	19.62287	338.87253	230.17368	9.03271	375.35410	210.32701	5.18823	202.00232	330.18506	27.89293	207.56956	339.88992	16.50402	195.99377	340.09354	2.74925	197.14589	305.28296	30.20808	203.67694	293.98843	27.85224	212.85303	291.76257	11.91986	264.66373	291.51450	29.63669	279.47702	298.65689	24.29056	293.31927	287.99701	17.54168	292.54025	295.15302	7.48454	248.04427	278.65866	30.03086	231.82901	274.39636	23.43056	234.07507	267.78003	5.15378	221.45628	270.65253	3.63092	
7736	64.458	172.67468	335.24548	49.67562	181.80035	329.62741	51.05642	200.81612	319.56796	44.94204	227.04132	307.48099	44.29663	256.59143	287.21082	37.26690	280.07516	266.01599	29.79483	306.56039	246.68867	19.56085	338.12909	230.64333	8.91876	374.62805	210.82030	5.16940	201.39763	330.48584	27.94665	207.43672	339.97675	16.53885	196.00861	340.13260	2.74014	195.86008	305.89880	30.66907	202.01382	294.36813	29.13026	210.56470	291.72018	12.74096	263.73212	291.78397	29.79539	278.55597	298.90823	24.53803	292.66309	288.27701	18.05719	292.38281	295.29831	7.72141	247.24464	278.82709	29.98204	231.18121	274.21103	23.30735	234.03508	267.70081	5.11610	221.41296	270.61795	3.63973	
7737	64.467	171.80142	335.72217	49.70306	180.92151	330.07681	51.06744	199.87572	319.97241	45.00951	225.99075	307.63065	44.36161	255.65474	287.43613	37.33861	279.29553	266.43692	29.82846	305.76544	247.12968	19.51613	337.30615	231.08925	8.82222	373.83099	211.31746	5.14693	200.76936	330.81818	28.01772	207.27682	340.06696	16.60913	196.00815	340.20547	2.76206	194.49081	306.60434	31.16704	200.24316	294.87955	30.50669	207.90074	291.74255	13.68839	262.76151	292.06393	29.99096	277.57068	299.17709	24.82305	291.96469	288.57657	18.59766	292.17703	295.50653	8.03055	246.39578	279.01212	29.94335	230.51083	274.02466	23.17249	233.97223	267.63605	5.09986	221.37064	270.59802	3.64126	
7738	64.475	170.89725	336.23303	49.75437	180.01056	330.55371	51.10018	198.89745	320.40915	45.09045	224.89919	307.79541	44.45074	254.65500	287.67523	37.44222	278.46155	266.86511	29.88986	304.90411	247.56218	19.49909	336.41614	231.52382	8.75225	372.96677	211.81581	5.12403	200.11786	331.18033	28.10543	207.08615	340.15430	16.71169	195.98888	340.30264	2.80980	193.04939	307.39401	31.69381	198.39182	295.52759	31.94561	204.87619	291.86472	14.75986	261.75095	292.35519	30.22483	276.52499	299.45392	25.14448	291.22537	288.91736	19.16125	291.90656	295.78525	8.41835	245.50359	279.21301	29.92426	229.82538	273.84012	23.03132	233.89253	267.58994	5.10888	221.33511	270.59402	3.63439	
